<?xml version="1.0" encoding="UTF-8" standalone="no"?>
<svg
   version="1.0"
   width="1726.4587pt"
   height="481.56131pt"
   viewBox="0 0 1726.4587 481.56131"
   preserveAspectRatio="xMidYMid"
   id="svg1"
   sodipodi:docname="logo_black_text.svg"
   inkscape:version="1.4.3 (0d15f75, 2025-12-25)"
   xmlns:inkscape="http://www.inkscape.org/namespaces/inkscape"
   xmlns:sodipodi="http://sodipodi.sourceforge.net/DTD/sodipodi-0.dtd"
   xmlns="http://www.w3.org/2000/svg"
   xmlns:svg="http://www.w3.org/2000/svg">
  <defs
     id="defs1" />
  <sodipodi:namedview
     id="namedview1"
     pagecolor="#ffffff"
     bordercolor="#000000"
     borderopacity="0.25"
     inkscape:showpageshadow="2"
     inkscape:pageopacity="0.0"
     inkscape:pagecheckerboard="0"
     inkscape:deskcolor="#d1d1d1"
     inkscape:document-units="pt"
     inkscape:zoom="0.29553223"
     inkscape:cx="1883.0433"
     inkscape:cy="201.33168"
     inkscape:window-width="1536"
     inkscape:window-height="793"
     inkscape:window-x="-8"
     inkscape:window-y="1072"
     inkscape:window-maximized="1"
     inkscape:current-layer="svg1" />
  <g
     transform="matrix(0.1,0,0,-0.1,-294.08,788.6996)"
     fill="#000000"
     stroke="none"
     id="g1">
    <path
       d="m 5039,7877 c -21,-8 -63,-29 -95,-47 -33,-18 -142,-80 -244,-138 -102,-57 -219,-123 -260,-146 -41,-23 -167,-94 -280,-158 -113,-63 -297,-167 -410,-230 -113,-63 -317,-177 -455,-254 -141,-78 -265,-155 -287,-176 -72,-72 -69,-10 -66,-1274 l 3,-1129 27,-50 c 14,-27 37,-60 50,-71 12,-12 172,-104 353,-204 514,-285 672,-373 925,-515 552,-310 709,-394 753,-406 26,-6 72,-9 101,-7 54,5 200,82 1131,604 66,37 298,166 515,287 217,120 410,233 428,250 73,69 67,-37 64,1247 -2,763 -6,1168 -13,1194 -21,78 -66,109 -544,374 -247,137 -472,262 -500,277 -27,16 -228,128 -445,250 -588,331 -581,327 -653,331 -38,3 -76,-1 -98,-9 z m 39,-508 -3,-431 -38,-13 c -63,-21 -114,-62 -144,-112 -23,-40 -28,-59 -28,-118 0,-38 2,-76 5,-84 4,-10 -82,-63 -293,-183 l -298,-168 -45,39 c -108,95 -253,95 -360,-2 l -39,-35 -165,95 c -91,52 -258,146 -372,209 -115,64 -208,119 -208,124 0,10 24,24 880,503 349,195 734,411 855,480 121,69 228,126 238,126 16,1 17,-24 15,-430 z m 161,402 c 31,-15 162,-88 291,-161 129,-73 339,-190 465,-260 127,-70 284,-158 350,-195 66,-37 257,-144 425,-237 168,-94 316,-178 330,-188 14,-9 34,-20 44,-24 17,-6 18,-9 5,-21 -8,-8 -151,-91 -319,-185 -168,-95 -331,-187 -363,-206 l -59,-34 -28,30 c -15,16 -52,41 -82,55 -98,46 -208,27 -288,-49 l -35,-34 -299,168 -300,167 v 84 c -1,73 -5,90 -29,132 -34,57 -96,105 -149,113 l -38,7 v 433 c 0,315 3,434 11,434 6,0 37,-13 68,-29 z M 3122,6577 c 40,-24 209,-119 375,-211 l 301,-169 -5,-73 c -5,-65 -3,-79 21,-128 33,-67 79,-109 146,-133 l 50,-18 -2,-354 -3,-354 -45,-15 c -62,-21 -145,-105 -160,-163 -11,-39 -10,-128 1,-168 3,-10 -26,-32 -85,-65 -48,-28 -219,-126 -380,-217 -160,-91 -294,-164 -298,-162 -12,6 -10,2273 1,2273 5,0 42,-19 83,-43 z M 7216,5477 c 5,-843 4,-1127 -4,-1127 -6,0 -74,35 -149,78 -262,149 -588,331 -606,338 -17,6 -18,14 -12,74 8,84 -5,133 -51,194 -71,93 -208,127 -314,79 -55,-25 -123,-96 -140,-149 -15,-46 -18,-116 -7,-161 9,-36 50,-8 -333,-226 -113,-65 -217,-125 -232,-134 -26,-16 -27,-16 -52,14 -14,16 -53,42 -87,58 -51,23 -72,26 -123,23 -70,-5 -126,-29 -170,-73 l -31,-31 -125,71 c -69,39 -202,115 -297,168 l -171,97 5,78 c 6,88 -10,138 -63,201 -28,34 -113,81 -146,81 -17,0 -18,24 -18,358 v 359 l 42,12 c 63,19 124,66 155,119 25,42 28,57 28,135 0,48 3,87 6,87 4,0 138,74 300,165 l 293,165 30,-29 c 46,-45 112,-71 179,-71 68,0 115,18 173,65 l 42,35 244,-137 c 133,-74 268,-149 298,-166 l 55,-30 v -71 c 0,-39 4,-81 8,-92 8,-22 -48,-56 -583,-357 l -35,-20 -48,32 c -88,60 -187,69 -275,25 -129,-64 -177,-211 -112,-341 49,-98 127,-145 240,-145 129,-1 225,79 250,210 7,37 6,64 -4,101 l -13,51 297,170 c 163,93 304,172 312,175 10,4 35,-8 62,-29 128,-97 303,-64 383,72 25,42 28,57 28,134 0,81 2,88 23,98 24,11 534,297 657,368 38,23 73,38 77,34 4,-4 10,-515 14,-1135 z M 3883,4675 c 99,-85 246,-84 345,1 l 41,35 38,-25 c 21,-14 155,-90 298,-170 l 260,-145 -3,-70 c -3,-58 0,-79 20,-123 32,-68 90,-124 150,-144 l 48,-16 v -429 c 0,-381 -2,-429 -15,-429 -16,0 -163,79 -575,310 -129,72 -491,273 -805,447 -627,347 -615,340 -615,351 0,4 10,12 23,18 28,13 370,207 582,330 88,51 162,93 163,93 2,1 22,-15 45,-34 z m 2801,-122 c 144,-81 310,-175 371,-209 60,-33 111,-66 112,-71 2,-6 -7,-17 -21,-26 -21,-14 -723,-407 -1291,-722 -121,-67 -314,-175 -430,-240 -115,-65 -222,-121 -237,-126 l -28,-8 v 433 432 l 49,18 c 129,46 192,161 169,310 -2,15 44,46 242,158 135,77 270,153 301,169 l 57,31 45,-35 c 104,-79 264,-71 347,17 14,16 30,24 39,21 8,-3 132,-72 275,-152 z"
       id="path1" />
  </g>
  <path
     d="m 592.53632,353.86122 q -37.5,0 -59.7,-21.6 -22.2,-21.9 -22.2,-63.6 v -48 q 0,-41.7 22.2,-63.3 22.2,-21.9 59.7,-21.9 37.2,0 57,20.7 20.1,20.7 20.1,56.7 v 1.5 h -24.9 v -2.4 q 0,-23.7 -12.9,-38.7 -12.6,-15.3 -39.3,-15.3 -26.7,0 -41.7,16.5 -15,16.2 -15,45.6 v 49.2 q 0,29.4 15,45.9 15,16.2 41.7,16.2 26.7,0 39.3,-15 12.9,-15.3 12.9,-39 v -4.8 h 24.9 v 3.9 q 0,36 -20.1,56.7 -19.8,20.7 -57,20.7 z m 171.60007,-4.2 q -12.6,0 -19.5,-6.9 -6.6,-6.9 -6.6,-18.9 v -100.2 h -44.1 v -20.7 h 44.1 v -52.2 h 23.7 v 52.2 h 48 v 20.7 h -48 v 96.6 q 0,9 8.7,9 h 32.7 v 20.4 z m 71.99972,0 58.8,-74.4 -57,-72.3 h 28.5 l 43.8,56.7 h 4.2 l 43.5,-56.7 h 28.8 l -57.3,72.3 58.8,74.4 h -28.8 l -45,-58.5 h -4.2 l -45,58.5 z m 235.80009,0 -63.3,-210 h 26.1 l 57.3,194.7 h 3.9 l 57.3,-194.7 h 26.1 l -63.3,210 z m 174.0956,4.2 q -15.3,0 -27.9,-5.4 -12.6,-5.4 -19.8,-15.6 -7.2,-10.2 -7.2,-24.9 0,-15 7.2,-24.6 7.2,-9.9 19.8,-14.7 12.6,-5.1 28.2,-5.1 h 49.5 v -10.8 q 0,-15.6 -9.3,-24.6 -9,-9 -27,-9 -17.7,0 -27.6,8.7 -9.9,8.4 -13.5,22.8 l -22.2,-7.2 q 3.6,-12.3 11.4,-22.2 7.8,-10.2 20.7,-16.2 13.2,-6.3 31.5,-6.3 28.2,0 43.8,14.7 15.6,14.4 15.6,40.8 v 66.3 q 0,9 8.4,9 h 13.5 v 20.1 h -20.7 q -9.9,0 -15.9,-5.4 -6,-5.7 -6,-15 v -1.5 h -3.6 q -3.3,5.7 -9,12 -5.4,6 -15,9.9 -9.6,4.2 -24.9,4.2 z m 2.7,-20.4 q 21,0 33.9,-12.3 13.2,-12.6 13.2,-35.1 v -3.3 h -48.6 q -14.1,0 -23.4,6.3 -9,6 -9,18.3 0,12.3 9.3,19.2 9.6,6.9 24.6,6.9 z m 177.1266,18.9 q -15.9,0 -29.4,-6.9 -13.2,-6.9 -21,-20.4 -7.5,-13.8 -7.5,-33.3 v -88.8 h 23.7 v 87 q 0,21.9 10.8,31.8 11.1,9.9 29.7,9.9 21,0 34.5,-13.8 13.5,-13.8 13.5,-41.1 v -73.8 h 23.7 v 146.7 h -23.1 v -24.9 h -4.2 q -4.8,10.5 -16.5,19.2 -11.7,8.4 -34.2,8.4 z m 127.4998,-2.7 v -210 h 23.7 v 210 z m 127.5003,0 q -12.6,0 -19.5,-6.9 -6.6,-6.9 -6.6,-18.9 v -100.2 h -44.1 v -20.7 h 44.1 v -52.2 h 23.7 v 52.2 h 48 v 20.7 h -48 v 96.6 q 0,9 8.7,9 h 32.7 v 20.4 z"
     id="text1"
     style="font-size:300px;line-height:0;font-family:'Space Grotesk';-inkscape-font-specification:'Space Grotesk';stroke-width:0.75"
     aria-label="CtxVault" />
</svg>
